<svg xmlns="http://www.w3.org/2000/svg" viewBox="0 0 760 620" role="img" aria-labelledby="title desc">
  <title id="title">Dubai skyline at twilight</title>
  <desc id="desc">A modern abstract skyline with the Burj Khalifa rising above Dubai.</desc>
  <defs>
    <linearGradient id="sky" x1="0" y1="0" x2="0" y2="1"><stop stop-color="#1d4569"/><stop offset=".45" stop-color="#b36d65"/><stop offset="1" stop-color="#e8b779"/></linearGradient>
    <linearGradient id="sun" x1="0" y1="0" x2="1" y2="1"><stop stop-color="#fff4c7"/><stop offset="1" stop-color="#f0b655"/></linearGradient>
    <linearGradient id="glass" x1="0" y1="0" x2="1" y2="1"><stop stop-color="#d8e8ef" stop-opacity=".92"/><stop offset="1" stop-color="#26465c" stop-opacity=".95"/></linearGradient>
    <linearGradient id="ground" x1="0" y1="0" x2="0" y2="1"><stop stop-color="#132536"/><stop offset="1" stop-color="#08131e"/></linearGradient>
    <filter id="blur"><feGaussianBlur stdDeviation="16"/></filter>
  </defs>
  <rect width="760" height="620" rx="28" fill="url(#sky)"/>
  <circle cx="590" cy="125" r="66" fill="url(#sun)" opacity=".93"/>
  <circle cx="590" cy="125" r="96" fill="#ffc879" opacity=".14" filter="url(#blur)"/>
  <g fill="#fff" opacity=".75"><circle cx="91" cy="97" r="2"/><circle cx="154" cy="68" r="1.5"/><circle cx="235" cy="105" r="1"/><circle cx="681" cy="71" r="1.5"/><circle cx="718" cy="156" r="1"/></g>
  <path d="M0 461C122 430 189 443 290 462c109 21 201 8 287-17 73-22 122-16 183-1v176H0Z" fill="#162738" opacity=".42"/>
  <g fill="url(#glass)" stroke="#dcebf0" stroke-opacity=".3">
    <path d="M46 520V344h84v176Z"/><path d="M62 344v-42h52v42Z"/>
    <path d="M136 520V386h95v134Z"/><path d="M165 386v-38h38v38Z"/>
    <path d="M530 520V364h78v156Z"/><path d="M550 364v-67h38v67Z"/>
    <path d="M618 520V410h96v110Z"/><path d="M653 410v-30h28v30Z"/>
  </g>
  <g fill="#102b3e" stroke="#c5d9e3" stroke-opacity=".35">
    <path d="M250 520h138l-13-44-28-12-8-80-18-31-14-144-11-101-10 101-14 144-18 31-8 80-29 12Z"/>
    <path d="M296 108 301 50l5 58Z" fill="#dce7ea"/>
    <path d="M405 520V403l29-78 29 78v117Z"/><path d="M430 325v-48h8v48Z"/>
  </g>
  <g stroke="#e8d7ae" stroke-width="3" opacity=".58"><path d="M284 418h24M280 386h32M277 352h38M274 316h43M271 278h50M267 239h58M263 202h66M290 450h14M420 418h28M553 403h30M73 390h30"/></g>
  <path d="M0 512h760v108H0Z" fill="url(#ground)"/>
  <path d="M0 534c98-18 177-12 265 5 105 20 202 22 309 2 71-13 129-15 186-4" fill="none" stroke="#e5bf78" stroke-opacity=".45" stroke-width="4"/>
  <g fill="#f7d38b" opacity=".74"><rect x="64" y="485" width="5" height="9" rx="2"/><rect x="90" y="485" width="5" height="9" rx="2"/><rect x="160" y="480" width="5" height="9" rx="2"/><rect x="192" y="480" width="5" height="9" rx="2"/><rect x="551" y="475" width="5" height="9" rx="2"/><rect x="580" y="475" width="5" height="9" rx="2"/><rect x="650" y="478" width="5" height="9" rx="2"/><rect x="680" y="478" width="5" height="9" rx="2"/></g>
</svg>
